<mxfile host="app.diagrams.net" modified="2022-04-15T02:27:28.777Z" agent="5.0 (Macintosh; Intel Mac OS X 10_15_7) AppleWebKit/537.36 (KHTML, like Gecko) Chrome/100.0.4896.75 Safari/537.36" etag="8PoF4tB5B7e5b6jkb4iU" version="17.4.3" type="github">
  <diagram id="JaGVW_5ovRFz3j2fczCU" name="Page-1">
    <mxGraphModel dx="2194" dy="997" grid="1" gridSize="10" guides="1" tooltips="1" connect="1" arrows="1" fold="1" page="1" pageScale="1" pageWidth="1169" pageHeight="827" math="0" shadow="0">
      <root>
        <mxCell id="0" />
        <mxCell id="1" parent="0" />
        <mxCell id="IXbgBEkXsOHuijBsvvHf-1" value="VO(xkObject3D)" style="rounded=1;whiteSpace=wrap;html=1;fillColor=none;" vertex="1" parent="1">
          <mxGeometry x="309" y="83" width="120" height="60" as="geometry" />
        </mxCell>
        <mxCell id="IXbgBEkXsOHuijBsvvHf-6" value="Utils function" style="rounded=1;whiteSpace=wrap;html=1;fillColor=none;" vertex="1" parent="1">
          <mxGeometry x="50" y="183" width="120" height="60" as="geometry" />
        </mxCell>
        <mxCell id="IXbgBEkXsOHuijBsvvHf-7" value="View(Scene)" style="rounded=1;whiteSpace=wrap;html=1;fillColor=none;" vertex="1" parent="1">
          <mxGeometry x="630" y="83" width="120" height="60" as="geometry" />
        </mxCell>
        <mxCell id="IXbgBEkXsOHuijBsvvHf-8" value="Backend" style="rounded=1;whiteSpace=wrap;html=1;fillColor=none;" vertex="1" parent="1">
          <mxGeometry x="630" y="353" width="120" height="60" as="geometry" />
        </mxCell>
        <mxCell id="IXbgBEkXsOHuijBsvvHf-9" value="API" style="endArrow=classic;startArrow=classic;html=1;rounded=0;entryX=0;entryY=0.5;entryDx=0;entryDy=0;exitX=1;exitY=0.5;exitDx=0;exitDy=0;" edge="1" parent="1" source="IXbgBEkXsOHuijBsvvHf-5" target="IXbgBEkXsOHuijBsvvHf-8">
          <mxGeometry width="50" height="50" relative="1" as="geometry">
            <mxPoint x="500" y="453" as="sourcePoint" />
            <mxPoint x="550" y="403" as="targetPoint" />
          </mxGeometry>
        </mxCell>
        <mxCell id="IXbgBEkXsOHuijBsvvHf-11" value="render" style="endArrow=classic;html=1;rounded=0;exitX=1;exitY=0.5;exitDx=0;exitDy=0;entryX=0;entryY=0.5;entryDx=0;entryDy=0;" edge="1" parent="1" source="IXbgBEkXsOHuijBsvvHf-1" target="IXbgBEkXsOHuijBsvvHf-7">
          <mxGeometry width="50" height="50" relative="1" as="geometry">
            <mxPoint x="220" y="373" as="sourcePoint" />
            <mxPoint x="270" y="323" as="targetPoint" />
          </mxGeometry>
        </mxCell>
        <mxCell id="IXbgBEkXsOHuijBsvvHf-13" value="" style="group" vertex="1" connectable="0" parent="1">
          <mxGeometry x="270" y="213" width="200" height="200" as="geometry" />
        </mxCell>
        <mxCell id="IXbgBEkXsOHuijBsvvHf-5" value="" style="rounded=1;whiteSpace=wrap;html=1;dashed=1;fillColor=none;" vertex="1" parent="IXbgBEkXsOHuijBsvvHf-13">
          <mxGeometry width="200" height="200" as="geometry" />
        </mxCell>
        <mxCell id="IXbgBEkXsOHuijBsvvHf-12" value="" style="group" vertex="1" connectable="0" parent="IXbgBEkXsOHuijBsvvHf-13">
          <mxGeometry x="40" y="25" width="120" height="150" as="geometry" />
        </mxCell>
        <mxCell id="IXbgBEkXsOHuijBsvvHf-3" value="BO" style="rounded=1;whiteSpace=wrap;html=1;dashed=1;fillColor=none;" vertex="1" parent="IXbgBEkXsOHuijBsvvHf-12">
          <mxGeometry width="120" height="60" as="geometry" />
        </mxCell>
        <mxCell id="IXbgBEkXsOHuijBsvvHf-4" value="DO" style="rounded=1;whiteSpace=wrap;html=1;fillColor=none;strokeWidth=2;" vertex="1" parent="IXbgBEkXsOHuijBsvvHf-12">
          <mxGeometry y="90" width="120" height="60" as="geometry" />
        </mxCell>
        <mxCell id="IXbgBEkXsOHuijBsvvHf-14" value="mapping" style="endArrow=classic;html=1;rounded=0;exitX=0.5;exitY=0;exitDx=0;exitDy=0;entryX=0.5;entryY=1;entryDx=0;entryDy=0;" edge="1" parent="1" source="IXbgBEkXsOHuijBsvvHf-5" target="IXbgBEkXsOHuijBsvvHf-1">
          <mxGeometry width="50" height="50" relative="1" as="geometry">
            <mxPoint x="220" y="373" as="sourcePoint" />
            <mxPoint x="270" y="323" as="targetPoint" />
          </mxGeometry>
        </mxCell>
        <mxCell id="IXbgBEkXsOHuijBsvvHf-17" value="invoke" style="endArrow=classic;html=1;rounded=0;exitX=0;exitY=0.5;exitDx=0;exitDy=0;entryX=1;entryY=0.5;entryDx=0;entryDy=0;" edge="1" parent="1" source="IXbgBEkXsOHuijBsvvHf-1" target="IXbgBEkXsOHuijBsvvHf-6">
          <mxGeometry width="50" height="50" relative="1" as="geometry">
            <mxPoint x="190" y="103" as="sourcePoint" />
            <mxPoint x="240" y="53" as="targetPoint" />
          </mxGeometry>
        </mxCell>
        <mxCell id="IXbgBEkXsOHuijBsvvHf-18" value="invoke" style="endArrow=classic;html=1;rounded=0;exitX=0;exitY=0.5;exitDx=0;exitDy=0;" edge="1" parent="1" source="IXbgBEkXsOHuijBsvvHf-5">
          <mxGeometry width="50" height="50" relative="1" as="geometry">
            <mxPoint x="319" y="123" as="sourcePoint" />
            <mxPoint x="170" y="213" as="targetPoint" />
          </mxGeometry>
        </mxCell>
        <mxCell id="IXbgBEkXsOHuijBsvvHf-19" value="Controller&lt;br&gt;(in Components/XKEditor)" style="rounded=1;whiteSpace=wrap;html=1;fillColor=none;" vertex="1" parent="1">
          <mxGeometry x="620" y="183" width="150" height="60" as="geometry" />
        </mxCell>
        <mxCell id="IXbgBEkXsOHuijBsvvHf-21" value="CRUD" style="endArrow=classic;html=1;rounded=0;exitX=0;exitY=0.5;exitDx=0;exitDy=0;entryX=1;entryY=0.5;entryDx=0;entryDy=0;" edge="1" parent="1" source="IXbgBEkXsOHuijBsvvHf-19" target="IXbgBEkXsOHuijBsvvHf-1">
          <mxGeometry width="50" height="50" relative="1" as="geometry">
            <mxPoint x="220" y="353" as="sourcePoint" />
            <mxPoint x="560" y="243" as="targetPoint" />
          </mxGeometry>
        </mxCell>
        <mxCell id="IXbgBEkXsOHuijBsvvHf-22" value="CRUD" style="endArrow=classic;html=1;rounded=0;exitX=0;exitY=0.5;exitDx=0;exitDy=0;entryX=1;entryY=0.5;entryDx=0;entryDy=0;" edge="1" parent="1" source="IXbgBEkXsOHuijBsvvHf-19" target="IXbgBEkXsOHuijBsvvHf-5">
          <mxGeometry width="50" height="50" relative="1" as="geometry">
            <mxPoint x="620" y="243" as="sourcePoint" />
            <mxPoint x="439" y="123" as="targetPoint" />
          </mxGeometry>
        </mxCell>
        <mxCell id="IXbgBEkXsOHuijBsvvHf-23" value="Actor" style="shape=umlActor;verticalLabelPosition=bottom;verticalAlign=top;html=1;outlineConnect=0;strokeWidth=2;fillColor=none;" vertex="1" parent="1">
          <mxGeometry x="870" y="133" width="30" height="60" as="geometry" />
        </mxCell>
        <mxCell id="IXbgBEkXsOHuijBsvvHf-27" value="impression" style="endArrow=classic;html=1;rounded=0;entryX=1;entryY=0.5;entryDx=0;entryDy=0;" edge="1" parent="1" source="IXbgBEkXsOHuijBsvvHf-23" target="IXbgBEkXsOHuijBsvvHf-7">
          <mxGeometry width="50" height="50" relative="1" as="geometry">
            <mxPoint x="460" y="383" as="sourcePoint" />
            <mxPoint x="510" y="333" as="targetPoint" />
          </mxGeometry>
        </mxCell>
        <mxCell id="IXbgBEkXsOHuijBsvvHf-28" value="action" style="endArrow=classic;html=1;rounded=0;entryX=1;entryY=0.5;entryDx=0;entryDy=0;" edge="1" parent="1" target="IXbgBEkXsOHuijBsvvHf-19">
          <mxGeometry width="50" height="50" relative="1" as="geometry">
            <mxPoint x="870" y="163" as="sourcePoint" />
            <mxPoint x="760" y="123" as="targetPoint" />
          </mxGeometry>
        </mxCell>
        <mxCell id="IXbgBEkXsOHuijBsvvHf-29" value="Version.20220415" style="rounded=0;whiteSpace=wrap;html=1;strokeWidth=2;fillColor=none;" vertex="1" parent="1">
          <mxGeometry x="10" y="10" width="110" height="30" as="geometry" />
        </mxCell>
      </root>
    </mxGraphModel>
  </diagram>
</mxfile>
